<svg viewBox="0 0 416 416" xmlns="http://www.w3.org/2000/svg" fill-rule="evenodd" clip-rule="evenodd" stroke-linecap="round" stroke-linejoin="round" stroke-miterlimit="1.5"><circle cx="207.97" cy="207.97" r="205.5" fill="none" stroke="#1e3efa" stroke-width="4.94"/><path d="M200.97 168.97l-3 208s-1.524 1.844 3 4c4.525 2.157 15 0 15 0 2.978-.681 3.247-3.168 3-6l-4-207 80 102s2.474 3.33 4 0c1.526-3.329 7.812-69.715-43-98l86 13s6.156.037 5-3c0 0-41.163-71.327-117-35l86-69s6.817-3.555-5-4c0 0-80.047-14.618-103 68 0 0-18.835-83.697-109-66 0 0-1.158 1.717 1 4 0 0 87.246 66.928 87 67-.246.073-69.263-35.452-117 33 0 0-3.345 4.994 4 5l87-13s-54.35 24.002-43 96c0 0 1.657 6.205 6 1l77-100z" fill="#1e3efa"/></svg>